Coordinates
version=1
nRows=10
nColumns=22
inDegrees=yes

Units are S.I. units (second, meters, Newtons, ...)
If the header above contains a line with 'inDegrees', this indicates whether rotational values are in degrees (yes) or radians (no).

endheader
time	pelvis_tilt	pelvis_list	pelvis_rotation	pelvis_tx	pelvis_ty	pelvis_tz	hip_flexion_r	hip_adduction_r	hip_rotation_r	knee_angle_r	ankle_angle_r	subtalar_angle_r	hip_flexion_l	hip_adduction_l	hip_rotation_l	knee_angle_l	ankle_angle_l	subtalar_angle_l	lumbar_extension	lumbar_bending	lumbar_rotation
      1.76000000	     -1.29754851	      5.30760422	     88.73545852	      0.40044662	      0.89837021	     -0.28133488	     20.04707062	     -7.43504936	     -3.47048981	     -7.19643992	     -2.97343734	     13.31867157	    -12.17117464	      3.73880551	      3.95991224	    -21.55804896	     19.43307244	     -6.52175315	     -7.95195717	     -7.28481260	     -7.48416219
      1.77000000	     -1.23294363	      5.23470003	     89.03339984	      0.40439796	      0.89727743	     -0.28998921	     20.26407817	     -7.14320762	     -2.67890584	     -8.38302065	     -3.14464419	     12.80166327	    -12.46318419	      3.34742920	      4.03903169	    -22.01404614	     19.42754175	     -6.53664118	     -7.72173404	     -7.21526547	     -7.47163421
      1.78000000	     -1.10740667	      5.16538697	     89.33075647	      0.40841865	      0.89634082	     -0.29879729	     20.42037306	     -6.76857075	     -1.90655236	     -9.58847398	     -3.41947069	     12.33560680	    -12.70833857	      2.88778919	      4.08584544	    -22.57879876	     19.31721152	     -6.59281703	     -7.47660909	     -7.07910449	     -7.44849703
      1.79000000	     -0.93660474	      5.09708583	     89.65700482	      0.41242938	      0.89558574	     -0.30771599	     20.53013516	     -6.34486005	     -1.27103543	    -10.79606894	     -3.79742409	     11.86180330	    -12.88075644	      2.37428331	      4.12438364	    -23.28029837	     19.05920171	     -6.68069273	     -7.22283122	     -6.88714405	     -7.43470144
      1.80000000	     -0.73708023	      5.03625420	     90.00346302	      0.41643694	      0.89502970	     -0.31669751	     20.60188421	     -5.89100987	     -0.79178413	    -11.99162647	     -4.21143929	     11.33085436	    -12.97066295	      1.82547852	      4.13203691	    -24.13799012	     18.66332817	     -6.80098095	     -6.97429782	     -6.66582451	     -7.42705673
      1.81000000	     -0.45032924	      5.00457333	     90.35959109	      0.42043763	      0.89476260	     -0.32579537	     20.57070369	     -5.35110368	     -0.46408653	    -13.08431609	     -4.69340828	     11.00332381	    -13.01470201	      1.18081849	      4.10027537	    -25.12499387	     18.06194938	     -6.92926984	     -6.74172029	     -6.34431427	     -7.40398534
      1.82000000	     -0.12233190	      4.99868302	     90.71995368	      0.42437235	      0.89476419	     -0.33493852	     20.48635158	     -4.78215104	     -0.31372936	    -14.13062084	     -5.15108997	     10.73465153	    -12.98704635	      0.49333136	      4.00061617	    -26.26619240	     17.24219102	     -7.06384681	     -6.53029492	     -5.96727274	     -7.36728231
      1.83000000	      0.25781625	      5.02155697	     91.08038473	      0.42825856	      0.89501399	     -0.34401465	     20.34625485	     -4.17416074	     -0.32174154	    -15.10844161	     -5.60496287	     10.45718931	    -12.83980483	     -0.25769014	      3.77764800	    -27.64168175	     16.31765759	     -7.20817759	     -6.36014383	     -5.53055274	     -7.30573124
      1.84000000	      0.69199795	      5.07996109	     91.42587983	      0.43209304	      0.89556695	     -0.35309174	     20.13316123	     -3.52502193	     -0.47639403	    -16.00385030	     -5.99847518	     10.30111522	    -12.62524220	     -1.06837470	      3.46813929	    -29.15761217	     15.14385182	     -7.33304690	     -6.21982959	     -5.03012139	     -7.22344879
      1.85000000	      1.16442024	      5.17761765	     91.75421835	      0.43583902	      0.89639221	     -0.36209644	     19.84581115	     -2.85385356	     -0.74399703	    -16.81454158	     -6.31583132	     10.23764068	    -12.32263598	     -1.92701025	      3.05069033	    -30.84490842	     13.77018105	     -7.43124368	     -6.12446457	     -4.47795901	     -7.10786274
